<svg width="1920" height="1080" viewBox="0 0 1920 1080" fill="none" xmlns="http://www.w3.org/2000/svg">
<g id="bg-home" clip-path="url(#clip0_1076_0)">
<rect width="1920" height="1080" fill="#EDEAEF"/>
<g id="bg-home-blur2" filter="url(#filter0_f_1076_0)">
<rect width="535.102" height="1363.6" rx="55" transform="matrix(0.866025 0.5 -0.866025 0.5 1796.91 0)" fill="url(#paint0_linear_1076_0)" fill-opacity="0.3"/>
</g>
<g id="bg-home-blur1" class="bg-home-blur1" filter="url(#filter1_f_1076_0)">
<rect width="535.102" height="1363.6" rx="55" transform="matrix(0.866025 0.5 -0.866025 0.5 690.911 -50)" fill="url(#paint1_linear_1076_0)" fill-opacity="0.3"/>
</g>
<g id="bg-home-rect2" class="bg-home-rect2" filter="url(#filter2_b_1076_0)">
<rect width="535.102" height="843.545" rx="55" transform="matrix(0.866025 0.5 -0.866025 0.5 1571.53 -176)" fill="url(#paint2_linear_1076_0)"/>
</g>
<g id="bg-home-rect1" class="bg-home-rect1" filter="url(#filter3_b_1076_0)">
<rect width="535.102" height="843.545" rx="55" transform="matrix(0.866025 0.5 -0.866025 0.5 788.531 309)" fill="url(#paint3_linear_1076_0)"/>
</g>
<g id="bg-home-rect4" class="bg-home-rect4" filter="url(#filter4_b_1076_0)">
<rect width="535.102" height="843.545" rx="55" transform="matrix(0.866025 0.5 -0.866025 0.5 1844.53 336)" fill="url(#paint4_linear_1076_0)"/>
</g>
<g id="bg-home-rect3" class="bg-home-rect3" filter="url(#filter5_b_1076_0)">
<rect width="535.102" height="843.545" rx="55" transform="matrix(0.866025 0.5 -0.866025 0.5 642.531 -237)" fill="url(#paint5_linear_1076_0)"/>
</g>
<path id="bg-home-letter-u" d="M1985 699.703V258.116C1985 236.616 1973.36 230 1956.72 230H1863.57C1843.61 230 1835.29 236.616 1835.29 258.116V876.672C1835.29 891.557 1805.56 945.63 1722.18 939.521C1564.15 927.944 1471 818.703 1471 731.129V258.116C1471 239.923 1479.32 230 1499.28 230H1590.77C1610.73 230 1619.05 239.923 1619.05 258.116V694.744C1619.05 744.226 1668.26 797.285 1722.18 797.285H1888.53C1941.76 797.285 1985 736.089 1985 699.703Z" stroke="url(#paint6_linear_1076_0)" stroke-width="2"/>
<path id="bg-home-letter-n" d="M1353 555.703L1353 114.116C1353 92.6155 1341.4 86 1324.83 86L1232.04 86C1212.16 86 1203.87 92.6155 1203.87 114.116L1203.87 732.672C1203.87 747.557 1174.26 801.63 1091.2 795.521C933.79 783.944 841 674.703 841 587.129L841 114.116C841 95.9234 849.285 85.9999 869.168 85.9999L960.301 85.9999C980.185 86 988.469 95.9234 988.469 114.116L988.469 550.744C988.469 600.226 1037.49 653.285 1091.2 653.285L1256.91 653.285C1309.93 653.285 1353 592.089 1353 555.703Z" stroke="url(#paint7_linear_1076_0)" stroke-width="2"/>
</g>
<defs>
<filter id="filter0_f_1076_0" x="393.902" y="-233.891" width="2088.52" height="1417.13" filterUnits="userSpaceOnUse" color-interpolation-filters="sRGB">
<feFlood flood-opacity="0" result="BackgroundImageFix"/>
<feBlend mode="normal" in="SourceGraphic" in2="BackgroundImageFix" result="shape"/>
<feGaussianBlur stdDeviation="125" result="effect1_foregroundBlur_1076_0"/>
</filter>
<filter id="filter1_f_1076_0" x="-712.098" y="-283.891" width="2088.52" height="1417.13" filterUnits="userSpaceOnUse" color-interpolation-filters="sRGB">
<feFlood flood-opacity="0" result="BackgroundImageFix"/>
<feBlend mode="normal" in="SourceGraphic" in2="BackgroundImageFix" result="shape"/>
<feGaussianBlur stdDeviation="125" result="effect1_foregroundBlur_1076_0"/>
</filter>
<filter id="filter2_b_1076_0" x="850.902" y="-177.891" width="1174.14" height="693.105" filterUnits="userSpaceOnUse" color-interpolation-filters="sRGB">
<feFlood flood-opacity="0" result="BackgroundImageFix"/>
<feGaussianBlur in="BackgroundImageFix" stdDeviation="9"/>
<feComposite in2="SourceAlpha" operator="in" result="effect1_backgroundBlur_1076_0"/>
<feBlend mode="normal" in="SourceGraphic" in2="effect1_backgroundBlur_1076_0" result="shape"/>
</filter>
<filter id="filter3_b_1076_0" x="67.9016" y="307.109" width="1174.14" height="693.105" filterUnits="userSpaceOnUse" color-interpolation-filters="sRGB">
<feFlood flood-opacity="0" result="BackgroundImageFix"/>
<feGaussianBlur in="BackgroundImageFix" stdDeviation="9"/>
<feComposite in2="SourceAlpha" operator="in" result="effect1_backgroundBlur_1076_0"/>
<feBlend mode="normal" in="SourceGraphic" in2="effect1_backgroundBlur_1076_0" result="shape"/>
</filter>
<filter id="filter4_b_1076_0" x="1123.9" y="334.109" width="1174.14" height="693.105" filterUnits="userSpaceOnUse" color-interpolation-filters="sRGB">
<feFlood flood-opacity="0" result="BackgroundImageFix"/>
<feGaussianBlur in="BackgroundImageFix" stdDeviation="9"/>
<feComposite in2="SourceAlpha" operator="in" result="effect1_backgroundBlur_1076_0"/>
<feBlend mode="normal" in="SourceGraphic" in2="effect1_backgroundBlur_1076_0" result="shape"/>
</filter>
<filter id="filter5_b_1076_0" x="-78.0984" y="-238.891" width="1174.14" height="693.105" filterUnits="userSpaceOnUse" color-interpolation-filters="sRGB">
<feFlood flood-opacity="0" result="BackgroundImageFix"/>
<feGaussianBlur in="BackgroundImageFix" stdDeviation="9"/>
<feComposite in2="SourceAlpha" operator="in" result="effect1_backgroundBlur_1076_0"/>
<feBlend mode="normal" in="SourceGraphic" in2="effect1_backgroundBlur_1076_0" result="shape"/>
</filter>
<linearGradient id="paint0_linear_1076_0" x1="535.102" y1="0" x2="-392.29" y2="363.927" gradientUnits="userSpaceOnUse">
<stop stop-color="#8429A0"/>
<stop offset="1" stop-color="#8429A0" stop-opacity="0"/>
</linearGradient>
<linearGradient id="paint1_linear_1076_0" x1="535.102" y1="0" x2="-392.29" y2="363.927" gradientUnits="userSpaceOnUse">
<stop stop-color="#8429A0"/>
<stop offset="1" stop-color="#8429A0" stop-opacity="0"/>
</linearGradient>
<linearGradient id="paint2_linear_1076_0" x1="267.551" y1="0" x2="267.551" y2="843.545" gradientUnits="userSpaceOnUse">
<stop stop-color="#F6F3F7"/>
<stop offset="1" stop-color="#F3F0F5" stop-opacity="0"/>
</linearGradient>
<linearGradient id="paint3_linear_1076_0" x1="267.551" y1="0" x2="267.551" y2="843.545" gradientUnits="userSpaceOnUse">
<stop stop-color="#F6F3F7"/>
<stop offset="1" stop-color="#F3F0F5" stop-opacity="0"/>
</linearGradient>
<linearGradient id="paint4_linear_1076_0" x1="267.551" y1="0" x2="267.551" y2="843.545" gradientUnits="userSpaceOnUse">
<stop stop-color="#F6F3F7"/>
<stop offset="1" stop-color="#F3F0F5" stop-opacity="0"/>
</linearGradient>
<linearGradient id="paint5_linear_1076_0" x1="267.551" y1="0" x2="267.551" y2="843.545" gradientUnits="userSpaceOnUse">
<stop stop-color="#F6F3F7"/>
<stop offset="1" stop-color="#F3F0F5" stop-opacity="0"/>
</linearGradient>
<linearGradient id="paint6_linear_1076_0" x1="1728" y1="230" x2="1728" y2="940" gradientUnits="userSpaceOnUse">
<stop stop-color="#82269E" stop-opacity="0.7"/>
<stop offset="1" stop-color="#82269E" stop-opacity="0"/>
</linearGradient>
<linearGradient id="paint7_linear_1076_0" x1="1097" y1="86" x2="1097" y2="796" gradientUnits="userSpaceOnUse">
<stop stop-color="#82269E" stop-opacity="0.7"/>
<stop offset="1" stop-color="#82269E" stop-opacity="0"/>
</linearGradient>
<clipPath id="clip0_1076_0">
<rect width="1920" height="1080" fill="white"/>
</clipPath>
</defs>
</svg>
