<svg width="88" height="70" viewBox="0 0 88 70" fill="none" xmlns="http://www.w3.org/2000/svg">
<g id="logonu">
<path id="logonu-letter-u" d="M78.6686 46.9969V19.7357C78.6686 18.4084 77.9513 18 76.9264 18H71.1871C69.9572 18 69.4448 18.4084 69.4448 19.7357V57.922C69.4448 58.8409 67.6128 62.1791 62.4756 61.802C52.7393 61.0873 47 54.3433 47 48.937V19.7357C47 18.6126 47.5125 18 48.7423 18H54.3791C55.609 18 56.1214 18.6126 56.1214 19.7357V46.6907C56.1214 49.7455 59.1535 53.0211 62.4756 53.0211H72.725C76.0046 53.0211 78.6686 49.2432 78.6686 46.9969Z" stroke="url(#paint0_linear_1063_0)" stroke-width="1.5"/>
</g>
<defs>
<linearGradient id="paint0_linear_1063_0" x1="51.9086" y1="55.9143" x2="80.43" y2="32.1613" gradientUnits="userSpaceOnUse">
<stop offset="1" stop-color="#82269E"/>
</linearGradient>
</defs>
</svg>
