<svg width="722" height="458" viewBox="0 0 722 458" fill="none" xmlns="http://www.w3.org/2000/svg">
<g id="nubank" clip-path="url(#clip0_609_104)">
<g id="Rectangle 968" filter="url(#filter0_i_609_104)">
<rect width="722" height="458" rx="25" fill="url(#paint0_linear_609_104)"/>
</g>
<text id="ALEX B M RIBEIRO" fill="#FEFBFF" xml:space="preserve" style="white-space: pre" font-family="Sora" font-size="24" font-weight="600" letter-spacing="0.1em"><tspan x="221" y="363.16">ALEX B M RIBEIRO</tspan></text>
<path id="Union" fill-rule="evenodd" clip-rule="evenodd" d="M161.1 381.209C161.111 381.153 161.111 381.128 161.111 381.129V375.414H152.563C149.959 375.414 147.538 374.137 145.788 372.346C144.042 370.559 142.857 368.151 142.857 365.741V328.812C142.857 328.175 142.71 327.88 142.574 327.739C142.446 327.605 142.16 327.434 141.47 327.434H133.748C133.058 327.434 132.772 327.605 132.644 327.739C132.508 327.88 132.361 328.175 132.361 328.812V368.819C132.361 375.569 139.676 384.496 152.636 385.447C155.913 385.687 158.043 384.744 159.342 383.679C160 383.139 160.456 382.559 160.743 382.063C160.886 381.814 160.983 381.595 161.042 381.42C161.071 381.333 161.089 381.263 161.1 381.209ZM161.111 373.414H152.563C150.615 373.414 148.683 372.447 147.219 370.948C145.75 369.445 144.857 367.516 144.857 365.741V328.812C144.857 327.911 144.654 327.016 144.017 326.354C143.373 325.683 142.466 325.434 141.47 325.434H133.748C132.753 325.434 131.845 325.683 131.201 326.353C130.565 327.016 130.361 327.911 130.361 328.812V368.819C130.361 376.882 138.772 386.435 152.49 387.442C156.251 387.718 158.895 386.632 160.61 385.225C161.459 384.529 162.071 383.762 162.475 383.063C162.859 382.397 163.111 381.696 163.111 381.129V375.414H166.605C169.241 375.414 171.528 373.906 173.113 372.101C174.684 370.312 175.748 368.023 175.748 366.161V328.812C175.748 327.728 175.451 326.809 174.738 326.187C174.053 325.59 173.168 325.434 172.361 325.434H164.498C163.595 325.434 162.661 325.573 161.983 326.217C161.295 326.872 161.111 327.817 161.111 328.812V373.414ZM163.111 373.414H166.605C168.462 373.414 170.246 372.334 171.61 370.782C172.987 369.214 173.748 367.376 173.748 366.161V328.812C173.748 328.078 173.554 327.808 173.424 327.695C173.266 327.558 172.958 327.434 172.361 327.434H164.498C163.716 327.434 163.457 327.575 163.362 327.666C163.278 327.745 163.111 327.988 163.111 328.812V373.414Z" fill="#FEFBFF"/>
<circle id="Ellipse 10" cx="581.889" cy="86.4971" r="45.7505" fill="#E71924"/>
<circle id="Ellipse 11" cx="637.647" cy="86.4971" r="45.7505" fill="#F99F19"/>
<path id="Intersect" fill-rule="evenodd" clip-rule="evenodd" d="M609.768 122.595C620.636 114.23 627.64 101.092 627.64 86.3172C627.64 71.5427 620.636 58.404 609.768 50.0396C598.9 58.404 591.897 71.5427 591.897 86.3172C591.897 101.092 598.9 114.23 609.768 122.595Z" fill="#F26520"/>
<g id="Group 301">
<rect id="Rectangle 344" x="80.4209" y="156.195" width="97.9347" height="69.3406" rx="6.07624" fill="url(#paint1_linear_609_104)" stroke="#211F21" stroke-width="2.14455"/>
<path id="Vector 9" d="M80.7783 178.713H110.087" stroke="#211F21" stroke-width="2" stroke-linecap="round"/>
<path id="Vector 10" d="M80.7783 200.873H109.445" stroke="#211F21" stroke-width="2" stroke-linecap="round"/>
<path id="Vector 11" d="M149.404 200.873H177.998" stroke="#211F21" stroke-width="2" stroke-linecap="round"/>
<path id="Vector 12" d="M148.975 179.428H177.998" stroke="#211F21" stroke-width="2" stroke-linecap="round"/>
<circle id="Ellipse 12" cx="129.388" cy="166.561" r="2.14455" fill="#211F21"/>
<g id="Vector 13">
<path d="M231.053 205.824C236.325 192.59 236.926 185.119 231.053 171.645C230.43 170.215 231.053 169.024 231.768 168.786C232.483 168.547 233.589 168.786 234.27 170.215C241.188 184.73 240.767 192.87 234.627 207.387C233.912 208.817 232.575 208.998 231.768 208.46C230.824 207.831 230.608 206.941 231.053 205.824Z" fill="#FEFBFF"/>
<path d="M223.547 172.717C222.832 173.075 222.375 174.43 223.19 175.934C227.999 185.94 227.801 191.662 223.19 202.026C222.686 203.071 222.998 204.226 223.905 204.528C224.977 204.886 225.913 204.125 226.406 203.098C231.701 192.084 231.84 185.756 226.406 174.147C225.905 173.075 224.619 172.181 223.547 172.717Z" fill="#FEFBFF"/>
<path d="M216.399 177.364C215.326 177.721 215.136 178.908 215.684 180.223C218.53 187.063 218.979 190.898 215.684 197.737C215.041 198.929 214.83 200.193 216.041 200.596C217.252 201 218.126 200.363 218.543 199.524C222.766 191.149 221.82 186.454 218.543 178.079C218.263 177.364 217.471 177.006 216.399 177.364Z" fill="#FEFBFF"/>
<path d="M208.893 180.223C207.82 180.938 207.668 182.022 208.535 183.797C210.344 187.564 210.303 189.68 208.535 193.448C207.713 195.11 207.463 197.022 208.893 197.38C210.322 197.737 210.957 197.229 211.752 195.235C213.578 189.987 213.756 187.02 211.752 181.653C211.291 180.261 210.322 179.508 208.893 180.223Z" fill="#FEFBFF"/>
</g>
<path id="Vector 14" d="M145.115 170.849C142.372 161.508 137.251 156.91 129.03 156.91C119.023 156.91 116.194 164.53 110.087 178.355C113.998 187.507 114.039 192.437 110.087 200.873C116.494 219.254 121.24 224.915 129.388 224.821C140.111 224.821 143.163 215.733 149.046 200.873C145.952 192.497 145.622 187.875 148.5 179.5" stroke="#211F21" stroke-width="2" stroke-linecap="round"/>
</g>
</g>
<defs>
<filter id="filter0_i_609_104" x="0" y="0" width="725" height="461" filterUnits="userSpaceOnUse" color-interpolation-filters="sRGB">
<feFlood flood-opacity="0" result="BackgroundImageFix"/>
<feBlend mode="normal" in="SourceGraphic" in2="BackgroundImageFix" result="shape"/>
<feColorMatrix in="SourceAlpha" type="matrix" values="0 0 0 0 0 0 0 0 0 0 0 0 0 0 0 0 0 0 127 0" result="hardAlpha"/>
<feOffset dx="3" dy="3"/>
<feGaussianBlur stdDeviation="3"/>
<feComposite in2="hardAlpha" operator="arithmetic" k2="-1" k3="1"/>
<feColorMatrix type="matrix" values="0 0 0 0 1 0 0 0 0 1 0 0 0 0 1 0 0 0 0.25 0"/>
<feBlend mode="normal" in2="shape" result="effect1_innerShadow_609_104"/>
</filter>
<linearGradient id="paint0_linear_609_104" x1="610.09" y1="61.83" x2="354.096" y2="526.995" gradientUnits="userSpaceOnUse">
<stop offset="1" stop-color="#82269E"/>
</linearGradient>
<linearGradient id="paint1_linear_609_104" x1="171" y1="165" x2="87" y2="221" gradientUnits="userSpaceOnUse">
<stop stop-color="#F4F4F4"/>
<stop offset="1" stop-color="#D6D6D6"/>
</linearGradient>
<clipPath id="clip0_609_104">
<rect width="722" height="458" fill="white"/>
</clipPath>
</defs>
</svg>
